#N canvas 0 0 1912 986 12;
#X obj 245 292 inlet~;
#X obj 28 58 inlet;
#X obj 315 292 inlet~;
#X obj 395 292 inlet~;
#X obj 475 292 inlet~;
#X obj 66 141 sel 0 1 2 3;
#X msg 73 189 1 0 0 0;
#X msg 95 223 0 1 0 0;
#X msg 115 255 0 0 1 0;
#X msg 137 290 0 0 0 1;
#X obj 73 355 unpack f f f f;
#X obj 245 347 *~ 0;
#X obj 315 347 *~ 0;
#X obj 395 347 *~ 0;
#X obj 475 349 *~ 0;
#X obj 316 437 outlet~;
#X connect 0 0 11 0;
#X connect 1 0 5 0;
#X connect 2 0 12 0;
#X connect 3 0 13 0;
#X connect 4 0 14 0;
#X connect 5 0 6 0;
#X connect 5 1 7 0;
#X connect 5 2 8 0;
#X connect 5 3 9 0;
#X connect 6 0 10 0;
#X connect 7 0 10 0;
#X connect 8 0 10 0;
#X connect 9 0 10 0;
#X connect 10 0 11 1;
#X connect 10 1 12 1;
#X connect 10 2 13 1;
#X connect 10 3 14 1;
#X connect 11 0 15 0;
#X connect 12 0 15 0;
#X connect 13 0 15 0;
#X connect 14 0 15 0;
