#N canvas 0 26 1912 986 10;
#X obj 102 102 cnv 15 120 120 empty empty empty 20 12 0 14 #90d4e0
#404040 0;
#X obj 231 37 inlet~;
#X obj 384 490 outlet~;
#X obj 470 164 *~ 2;
#X obj 470 186 -~ 1;
#X obj 435 142 phasor~ 1;
#X obj 594 219 abs~;
#X obj 434 255 expr~ $v1 < $v2;
#X text 643 221 triangle;
#X obj 532 183 sig~ 0.5;
#X obj 434 277 -~ 0.5;
#X obj 434 299 *~ 2;
#X obj 594 241 *~ 4;
#X obj 594 263 -~ 1;
#X obj 577 152 -~ 0.5;
#X text 448 237 square with pwm;
#X obj 112 184 hradio 25 1 0 4 \$0-typesnd \$0-typercv empty 0 -8 0
10 #b4ecfc #fcb070 #000000 0;
#X obj 390 203 cos~;
#X obj 285 41 inlet~;
#X obj 373 132 *~;
#X obj 526 216 *~;
#X msg 622 54 0.5;
#X obj 677 46 inlet;
#X obj 87 328 r \$0-freqsnd;
#X obj 98 349 r \$0-pwmsnd;
#X obj 108 369 r \$0-typesnd;
#X obj 254 472 s \$0-freqrcv;
#X obj 254 494 s \$0-pwmrcv;
#X obj 204 516 s \$0-typercv;
#X obj 256 399 pack \$1 \$2 \$3 \$4;
#X obj 256 421 unpack f f f f;
#X text 511 372 inlets \; 1: freq cv \; 2: pwm cv \; 3: type selector
(0-3) \; 4: phase reset (0-1) \;;
#X msg 674 99 0;
#X obj 556 359 outlet~ pulse;
#X obj 741 98 s \$0-typercv;
#X obj 759 130 s \$0-freqrcv;
#X obj 750 166 s \$0-pwmrcv;
#X obj 256 377 r initbang;
#X obj 595 26 r initbang;
#X obj 360 74 *~ 48;
#X obj 677 65 route bang float type freq pwm;
#X obj 134 119 nbx 5 18 0.05 100 1 0 \$0-freqsnd \$0-freqrcv frq -30
8 0 15 #4490b0 #dcf42c #181814 0 256;
#X obj 135 140 nbx 5 18 0 100 0 0 \$0-pwmsnd \$0-pwmrcv pwm -28 8 0
15 #4490b0 #dcf018 #181814 0 256;
#X obj 271 74 r \$0-freqsnd;
#X obj 255 158 r \$0-pwmsnd;
#X obj 255 180 / 100;
#X obj 250 110 abs/mdsl_smoother 50;
#X obj 401 95 abs/mdsl_midiratio~;
#X obj 387 356 abs/mdsl_mplex4;
#X obj 72 484 savestate;
#X obj 153 573 s \$0-freqrcv;
#X obj 187 596 s \$0-pwmrcv;
#X obj 222 619 s \$0-typercv;
#X obj 537 80 abs/scalearound1;
#X obj 395 425 *~;
#X text 105 101 rate----pw----ctrl;
#X obj 135 161 nbx 5 18 0 100 0 0 \$0-amtsnd \$0-amtrcv amt -28 8 0
15 #4490b0 #dcf018 #181814 0 256;
#X obj 824 387 abs/mdsl_smoother 20;
#X obj 816 343 / 100;
#X obj 70 432 pack f f f f f;
#X obj 124 390 r \$0-amtsnd;
#X obj 232 639 s \$0-amtrcv;
#X obj 72 513 unpack f f f f f;
#X text 116 206 sn--sw--pl--tri;
#X floatatom 816 366 5 0 0 0 - - - 0;
#X obj 818 319 r \$0-lfoamtsnd;
#X connect 1 0 39 0;
#X connect 3 0 4 0;
#X connect 4 0 48 2;
#X connect 5 0 3 0;
#X connect 5 0 7 0;
#X connect 5 0 14 0;
#X connect 5 0 17 0;
#X connect 6 0 12 0;
#X connect 7 0 10 0;
#X connect 9 0 20 0;
#X connect 10 0 11 0;
#X connect 11 0 33 0;
#X connect 11 0 48 3;
#X connect 12 0 13 0;
#X connect 13 0 48 4;
#X connect 14 0 6 0;
#X connect 16 0 48 0;
#X connect 17 0 48 1;
#X connect 18 0 53 0;
#X connect 19 0 5 0;
#X connect 20 0 7 1;
#X connect 21 0 53 1;
#X connect 22 0 40 0;
#X connect 23 0 59 1;
#X connect 24 0 59 2;
#X connect 25 0 59 3;
#X connect 29 0 30 0;
#X connect 30 1 26 0;
#X connect 30 2 27 0;
#X connect 30 3 28 0;
#X connect 32 0 5 1;
#X connect 37 0 29 0;
#X connect 38 0 21 0;
#X connect 39 0 47 0;
#X connect 40 0 32 0;
#X connect 40 1 5 1;
#X connect 40 2 34 0;
#X connect 40 3 35 0;
#X connect 40 4 36 0;
#X connect 43 0 46 0;
#X connect 44 0 45 0;
#X connect 45 0 9 0;
#X connect 46 0 19 1;
#X connect 47 0 19 0;
#X connect 48 0 54 0;
#X connect 49 0 62 0;
#X connect 49 1 59 0;
#X connect 53 0 20 1;
#X connect 54 0 2 0;
#X connect 57 0 54 1;
#X connect 58 0 57 0;
#X connect 58 0 64 0;
#X connect 59 0 49 0;
#X connect 60 0 59 4;
#X connect 62 1 50 0;
#X connect 62 2 51 0;
#X connect 62 3 52 0;
#X connect 62 4 61 0;
#X connect 65 0 58 0;
#X coords 0 -1 1 1 124 124 2 100 100;
