#N canvas 1284 36 1912 986 10;
#X obj 102 102 cnv 15 210 106 empty empty empty 20 12 0 14 #fcc4c4
#404040 0;
#X msg 498 182 \; pd dsp \$1, f 11;
#X obj 142 104 tgl 28 0 \$0-dspsnd \$0-dsprcv dsp 2 10 0 14 #fc586c
#fcfcc4 #f9f0cb 0 1;
#X obj 363 312 dac~;
#X obj 408 158 inlet~;
#X obj 352 157 inlet~;
#X obj 108 105 vsl 30 97 0.01 1.1 1 0 \$0-volsnd \$0-volrcv vol 4 4
0 12 #dc5c90 #fffb9e #fcc4c4 0 1;
#X obj 352 279 *~;
#X obj 408 280 *~;
#X floatatom 198 109 5 0 0 0 cpu \$0-cpu - 12;
#X obj 20 159 cputime;
#X msg 22 47 1;
#X obj 20 131 t b b;
#X obj 20 219 * 0.1;
#X obj 20 188 int;
#X obj 145 279 s keycontrol;
#X text 324 37 most of the buttons should be self explanatory. 'kb'
turns keyboard control on and off globally., f 36;
#X text 317 112 madam data apr 2017;
#X obj 192 160 bng 20 250 50 0 \$0-cfgbang empty set\\\ record\\\ location
0 -8 0 10 #fc9670 #fce8fc #000000;
#X obj 20 250 s \$0-cpu;
#X obj 116 329 r \$0-cfgbang;
#X msg 116 351 \; pd-config vis 1;
#X obj 498 152 r \$0-dspsnd;
#X obj 246 311 r \$0-allguissnd;
#X obj 145 249 r \$0-kbsnd;
#X obj 20 103 metro 1000;
#X obj 419 192 r \$0-volsnd;
#X obj 419 214 - 0.01;
#N canvas 505 81 450 300 vu 0;
#X obj 132 107 env~;
#X obj 132 129 - 90;
#X obj 132 184 s \$0-vurcv;
#X obj 132 151 spigot;
#X obj 132 85 *~ 0.5;
#X obj 132 50 inlet~;
#X obj 272 174 switch~;
#X obj 341 64 r allguis;
#X obj 324 38 loadbang;
#X obj 327 112 value allguistgl;
#X connect 0 0 1 0;
#X connect 1 0 3 0;
#X connect 3 0 2 0;
#X connect 4 0 0 0;
#X connect 5 0 4 0;
#X connect 7 0 9 0;
#X connect 8 0 9 0;
#X connect 9 0 6 0;
#X connect 9 0 3 1;
#X restore 395 364 pd vu;
#X obj 122 58 s \$0-allguisrcv;
#X obj 229 426 s allguis;
#X obj 246 350 t b f;
#X obj 273 390 value allguistgl;
#X msg 128 32 0.75;
#X obj 20 19 loadbang;
#X obj 344 247 abs/mdsl_smoother 70;
#X obj 478 248 abs/mdsl_smoother 70;
#X msg 716 403 dir;
#X obj 716 426 pdcontrol;
#X symbolatom 677 512 46 0 0 0 - - - 16;
#X obj 708 459 savepanel;
#X obj 742 662 writesf~ 2;
#X msg 782 599 stop;
#X obj 142 135 bng 46 250 50 0 empty \$0-recbutton REC 10 23 0 15 #fce0c0
#000000 #000000;
#X msg 553 679 color 13;
#X obj 553 702 s \$0-recbutton;
#X msg 619 676 color 34;
#X obj 473 481 tgl 15 0 empty empty empty 17 7 0 10 #fcfcfc #000000
#000000 0 1;
#X obj 497 526 sel 0 1;
#X msg 600 560 open \$1;
#X msg 517 595 start;
#X obj 492 318 throw~ \$0-recL;
#X obj 589 320 throw~ \$0-recR;
#X obj 853 587 catch~ \$0-recL;
#X obj 862 620 catch~ \$0-recR;
#X symbolatom 141 184 24 0 0 0 - \$0-filenamedisplay - 12;
#X obj 729 488 s \$0-filenamedisplay;
#X connect 4 0 8 0;
#X connect 5 0 7 0;
#X connect 7 0 3 0;
#X connect 7 0 28 0;
#X connect 7 0 51 0;
#X connect 8 0 3 1;
#X connect 8 0 28 0;
#X connect 8 0 52 0;
#X connect 10 0 14 0;
#X connect 11 0 25 0;
#X connect 11 0 29 0;
#X connect 12 0 10 0;
#X connect 12 1 10 1;
#X connect 13 0 19 0;
#X connect 14 0 13 0;
#X connect 18 0 37 0;
#X connect 20 0 21 0;
#X connect 22 0 1 0;
#X connect 23 0 31 0;
#X connect 24 0 15 0;
#X connect 25 0 12 0;
#X connect 26 0 27 0;
#X connect 27 0 35 0;
#X connect 27 0 36 0;
#X connect 31 0 30 0;
#X connect 31 1 32 0;
#X connect 33 0 6 0;
#X connect 34 0 11 0;
#X connect 34 0 33 0;
#X connect 35 0 7 1;
#X connect 36 0 8 1;
#X connect 37 0 38 0;
#X connect 38 0 40 0;
#X connect 39 0 49 0;
#X connect 40 0 39 0;
#X connect 40 0 56 0;
#X connect 42 0 41 0;
#X connect 42 0 46 0;
#X connect 43 0 47 0;
#X connect 44 0 45 0;
#X connect 46 0 45 0;
#X connect 47 0 48 0;
#X connect 48 0 42 0;
#X connect 48 1 50 0;
#X connect 49 0 41 0;
#X connect 50 0 44 0;
#X connect 50 0 41 0;
#X connect 53 0 41 0;
#X connect 54 0 41 1;
#X coords 0 -1 1 1 214 110 2 100 100;
